<svg xmlns="http://www.w3.org/2000/svg" width="411.663" height="417.862"><defs><clipPath id="a"><path d="M0 0h3293v3342.94H0V0z"/></clipPath></defs><g clip-path="url(#a)" transform="matrix(.13 0 0 -.13 0 417.863)"><path d="M699.086 2311.23c-3.945 1.24-8.445 3.56-11.57 6.63-10.06 10.06-10.06 26.36 0 36.41h518.164c10.01-10.05 10.01-26.35 0-36.41-3.65-3.64-8.69-6.08-13.41-7.1l-94.42-15.39c-30.84-5.97-54.08-33.11-54.1-65.67v-878.98c0-77.53 13.99-174 36.15-244.76 22.17-70.75 86.78-147.74 165.16-180.812 74.99-31.476 170.72-50.718 274.3-50.718 109.34 0 209.2 21.14 285.94 55.82 75.95 33.93 135.04 99.98 160 180.31 21.37 69.87 34.07 152.45 34.07 240.16v1021.53c0 221.09 108.64 294.11 279.31 294.11h306.73c11.36-11.38 11.36-29.78 0-41.15-4.15-4.12-9.87-6.91-15.18-8.02l-106.93-14.83c-63.28-11.08-79.85-36.24-79.85-102.26l-.64-115.93V1333.26c0-67.13-6.12-132.51-16.52-192.61-34.74-196.26-185.15-353.44-377.72-398.56-115.93-27.62-248-42.758-387.61-42.758-140.04 0-272.83 15.707-388.95 43.5-186.46 45.898-332.698 197.29-370.725 386.748-13.262 66.95-21.105 140.48-21.105 216.8l.097 883.32c0 31.71-22.507 58.5-52.156 65.37" fill="#ef6518"/></g></svg>